<mxfile host="app.diagrams.net" modified="2024-02-26T17:54:36.894Z" agent="Mozilla/5.0 (Windows NT 10.0; Win64; x64) AppleWebKit/537.36 (KHTML, like Gecko) Chrome/122.0.0.0 Safari/537.36" version="23.1.6" etag="M9RRDO3sXO8perDw1JYP" type="github">
  <diagram name="Page-1" id="XiZ8EPiW991g1yJYp2Ux">
    <mxGraphModel>
      <root>
        <mxCell id="0" />
        <mxCell id="1" parent="0" />
      </root>
    </mxGraphModel>
  </diagram>
</mxfile>
